<?xml version="1.0" encoding="UTF-8" standalone="no"?>
<svg
   id="svg"
   version="1.1"
   width="400"
   height="400"
   viewBox="0, 0, 400,400"
   sodipodi:docname="Skeleton icon.svg"
   inkscape:version="1.2.2 (732a01da63, 2022-12-09)"
   xmlns:inkscape="http://www.inkscape.org/namespaces/inkscape"
   xmlns:sodipodi="http://sodipodi.sourceforge.net/DTD/sodipodi-0.dtd"
   xmlns="http://www.w3.org/2000/svg"
   xmlns:svg="http://www.w3.org/2000/svg">
  <defs
     id="defs8">
    <filter
       style="color-interpolation-filters:sRGB;"
       inkscape:label="Invert"
       id="filter2313"
       x="0"
       y="0"
       width="1"
       height="1">
      <feColorMatrix
         type="hueRotate"
         values="180"
         result="color1"
         id="feColorMatrix2309" />
      <feColorMatrix
         values="-1 0 0 0 1 0 -1 0 0 1 0 0 -1 0 1 -0.21 -0.72 -0.07 2 0 "
         result="color2"
         id="feColorMatrix2311" />
    </filter>
  </defs>
  <sodipodi:namedview
     id="namedview6"
     pagecolor="#ffffff"
     bordercolor="#000000"
     borderopacity="0.25"
     inkscape:showpageshadow="2"
     inkscape:pageopacity="0.0"
     inkscape:pagecheckerboard="0"
     inkscape:deskcolor="#d1d1d1"
     showgrid="false"
     inkscape:zoom="2.035"
     inkscape:cx="184.02948"
     inkscape:cy="121.86732"
     inkscape:window-width="1920"
     inkscape:window-height="1001"
     inkscape:window-x="-9"
     inkscape:window-y="-9"
     inkscape:window-maximized="1"
     inkscape:current-layer="svg" />
  <g
     id="svgg"
     style="filter:url(#filter2313)">
    <path
       id="path0"
       d="m 207.972,28.55 c -0.126,0.132 -1.746,0.523 -3.6,0.869 -1.855,0.347 -4.092,0.966 -4.972,1.377 -0.88,0.411 -2.32,0.937 -3.2,1.17 -1.02,0.27 -2.779,1.437 -4.854,3.219 l -3.255,2.795 -0.164,4.11 c -0.153,3.805 -0.273,4.31 -1.615,6.812 -2.96,5.516 -1.06,13.49 3.217,13.504 2.639,0.009 3.02,0.35 4.893,4.394 0.255,0.55 0.619,1.27 0.809,1.6 0.19,0.33 0.808,1.416 1.374,2.413 1.239,2.186 5.797,4.023 7.95,3.204 0.603,-0.229 2.009,-0.417 3.125,-0.417 4.138,0 7.245,-1.896 8.582,-5.238 0.737,-1.843 3.364,-3.793 5.629,-4.179 5.018,-0.856 7.711,-2.453 7.707,-4.572 -0.006,-2.598 -0.748,-3.926 -2.589,-4.629 -2.415,-0.922 -3.09,-1.76 -2.935,-3.643 l 0.126,-1.539 2.4,-0.23 c 4.211,-0.405 4.87,-1.308 4.42,-6.067 -0.382,-4.056 -4.065,-9.068 -7.42,-10.098 -1.746,-0.537 -4.183,-1.895 -4.689,-2.615 -1.043,-1.48 -9.928,-3.299 -10.939,-2.24 m 6.228,19.195 c 4.249,1.083 5.176,6.097 1.407,7.605 -3.678,1.472 -6.453,-0.696 -7.486,-5.849 -0.452,-2.253 1.694,-2.873 6.079,-1.756 m -14.974,0.269 c 2.587,1.385 -0.533,10.386 -3.6,10.386 -4.971,0 -6.499,-9.437 -1.655,-10.222 0.786,-0.127 1.699,-0.288 2.029,-0.358 1.292,-0.274 2.487,-0.202 3.226,0.194 m 7.881,10.908 c 3.507,3.211 1.163,8.405 -3.203,7.096 -2.167,-0.649 -2.585,-1.752 -1.7,-4.477 1.251,-3.848 2.709,-4.627 4.903,-2.619 M 164.463,76.3 c -2.435,2.314 -4.463,5.473 -4.463,6.951 0,2.239 -5.998,9.134 -10.718,12.322 -0.945,0.638 -4.275,3.602 -7.4,6.587 -3.125,2.985 -6.824,6.254 -8.22,7.265 -2.889,2.094 -5.569,4.248 -10.742,8.636 -1.985,1.684 -4.219,3.369 -4.965,3.744 -3.28,1.653 -5.589,5.385 -3.955,6.395 0.22,0.136 0.4,1.76 0.4,3.609 0,2.374 0.233,3.985 0.795,5.486 1.368,3.657 1.709,9.558 1.879,32.597 l 0.164,22.091 2.405,2.509 c 4.285,4.469 4.276,4.495 -3.987,11.908 -7.369,6.61 -8.064,7.337 -9.142,9.562 -0.597,1.231 -1.696,3.096 -2.442,4.145 -1.55,2.177 -1.636,2.906 -0.671,5.693 2.59,7.485 4.87,8.07 4.665,1.197 -0.109,-3.652 -0.07,-3.847 1.111,-5.563 0.673,-0.978 1.223,-1.958 1.223,-2.177 0,-0.871 2.081,-2.088 2.697,-1.576 0.737,0.611 0.387,3.787 -0.675,6.119 -0.4,0.88 -0.925,2.661 -1.166,3.959 -0.241,1.297 -0.754,2.707 -1.14,3.134 -0.933,1.03 -1.019,5.743 -0.116,6.315 1.599,1.013 2.287,-0.12 3.828,-6.304 0.507,-2.033 1.451,-4.733 2.099,-6 1.363,-2.668 2.293,-5.263 2.66,-7.427 0.279,-1.645 -0.096,-1.35 6.925,-5.443 1.821,-1.062 3.67,-2.255 4.108,-2.652 0.768,-0.696 0.835,-0.692 1.908,0.101 0.611,0.452 2.036,1.291 3.167,1.864 1.13,0.572 2.69,1.695 3.466,2.494 1.635,1.683 3.191,1.662 3.843,-0.052 0.84,-2.209 -0.493,-4.848 -2.944,-5.829 -0.693,-0.278 -2.381,-1.597 -3.751,-2.932 -1.37,-1.336 -3.215,-3.084 -4.1,-3.887 -1.877,-1.701 -2.104,-3.357 -0.909,-6.626 0.916,-2.507 0.526,-20.438 -1.008,-46.315 -0.169,-2.86 -0.171,-8.424 -0.003,-12.365 0.354,-8.342 -0.027,-7.563 5.511,-11.256 3.859,-2.574 7.249,-5.633 8.883,-8.019 0.497,-0.724 1.581,-1.698 2.41,-2.164 0.829,-0.466 1.507,-1.032 1.507,-1.258 0,-0.225 1.575,-2.08 3.5,-4.122 4.906,-5.201 9.346,-10.809 14.099,-17.806 1.916,-2.82 3.04,-3.122 8.062,-2.166 2.025,0.386 2.433,8.283 0.649,12.556 -0.23,0.55 -0.467,2.17 -0.527,3.6 -0.074,1.773 -0.509,3.612 -1.368,5.783 -1.769,4.472 -2.458,9.459 -2.627,19.017 l -0.145,8.2 1.053,1.1 c 1.41,1.472 8.963,1.649 12.8,0.3 1.252,-0.44 2.517,-0.8 2.812,-0.8 0.295,0 1.291,-0.338 2.214,-0.751 3.911,-1.75 7.478,-1.322 7.478,0.897 0,1.203 -1.813,2.16 -5,2.638 -1.32,0.198 -3.438,0.735 -4.706,1.195 -1.268,0.459 -3.412,0.95 -4.763,1.091 -3.402,0.356 -4.881,1.923 -3.302,3.501 0.782,0.783 3.113,0.822 3.742,0.064 0.258,-0.311 1.405,-0.687 2.549,-0.836 1.144,-0.148 3.047,-0.704 4.228,-1.234 4.711,-2.116 9.176,-0.187 8.236,3.557 -0.397,1.58 -0.84,1.75 -5.352,2.048 -5.947,0.394 -7.662,1.262 -7.08,3.583 0.312,1.241 1.506,1.519 3.577,0.834 8.083,-2.676 10.919,-1.924 8.347,2.214 -1.757,2.826 -1.822,3.279 -0.692,4.832 3.941,5.413 2.292,10.394 -5.516,16.654 -2.408,1.932 -7.281,2.987 -8.049,1.744 -0.126,-0.204 -1.093,-0.657 -2.15,-1.008 -2.265,-0.752 -4.358,-2.796 -5.712,-5.576 -2.785,-5.716 -5.962,-5.824 -9.206,-0.315 -1.124,1.907 -2.569,3.918 -3.213,4.468 -1.063,0.909 -1.208,1.343 -1.581,4.746 -0.226,2.06 -0.579,4.186 -0.784,4.726 -0.796,2.094 -0.459,3.331 1.408,5.172 1.92,1.893 2.121,1.958 4.2,1.361 3.539,-1.015 3.793,0.919 0.565,4.305 -2.745,2.88 -2.826,5.185 -0.421,11.89 0.318,0.888 0.695,4.054 0.847,7.113 0.15,3.032 0.535,7.172 0.855,9.2 0.321,2.028 0.87,5.487 1.22,7.687 0.732,4.59 0.51,12.987 -0.46,17.4 -1.166,5.305 -1.864,9.482 -2.073,12.4 -0.135,1.896 -0.49,3.459 -0.964,4.247 -1.99,3.309 0.651,5.566 3.749,3.203 2.121,-1.618 4.492,-1.495 5.072,0.264 0.599,1.813 2.58,3.887 3.706,3.88 1.93,-0.013 2.14,-0.48 1.608,-3.578 -0.267,-1.557 -0.485,-3.684 -0.485,-4.726 0,-1.042 -0.198,-2.524 -0.44,-3.293 -0.275,-0.872 -0.502,-7.18 -0.605,-16.797 -0.091,-8.47 -0.336,-16.39 -0.544,-17.6 -0.208,-1.21 -0.577,-5.17 -0.819,-8.8 -0.242,-3.63 -0.71,-8.04 -1.04,-9.8 -1.383,-7.377 -1.379,-7.29 -0.492,-10.545 1.145,-4.203 1.314,-4.455 2.978,-4.455 1.301,0 5.514,3.145 6.117,4.566 0.086,0.201 0.986,1.194 2,2.206 1.015,1.012 2.745,3.097 3.846,4.633 l 2,2.793 7.53,0.528 c 8.651,0.605 8.923,0.54 9.886,-2.377 0.829,-2.513 2.91,-5.344 6.355,-8.649 5.462,-5.239 6.169,-4.097 5.519,8.92 -0.24,4.829 -0.366,14.9 -0.279,22.38 0.306,26.301 0.189,28.032 -2.255,33.317 -1.365,2.954 -2.126,6.909 -2.15,11.174 -0.016,2.88 3.291,3.185 4.587,0.423 2.111,-4.499 5.821,-8.843 7.933,-9.288 0.59,-0.124 1.496,-0.313 2.014,-0.419 2.656,-0.544 3.463,-3.786 1.619,-6.504 -0.528,-0.778 -0.96,-1.889 -0.96,-2.47 0,-0.58 -0.296,-1.478 -0.658,-1.995 -1.273,-1.817 -1.537,-38.692 -0.316,-44.038 0.327,-1.43 0.799,-4.95 1.05,-7.823 l 0.455,-5.223 -1.152,-2.377 c -1.876,-3.87 -1.658,-6.524 0.953,-11.593 3.057,-5.937 3.062,-12.45 0.011,-14.469 -1.662,-1.1 -6.611,-1.207 -7.652,-0.166 -0.248,0.248 -0.773,0.451 -1.166,0.451 -0.393,0 -2.332,1.532 -4.308,3.405 -1.976,1.873 -4.06,3.583 -4.631,3.8 -2.257,0.859 -6.602,0.242 -6.585,-0.934 0.001,-0.039 0.451,-1.749 1,-3.8 1.226,-4.577 1.226,-4.95 -0.008,-9.65 -2.115,-8.051 0.623,-10.168 8.046,-6.221 2.661,1.415 4.761,0.869 3.771,-0.981 -0.607,-1.135 -8.662,-4.819 -10.536,-4.819 -2.318,0 -3.466,-2.263 -1.726,-3.403 1.591,-1.042 8.372,-0.523 10.385,0.796 2.188,1.434 4.29,-0.594 2.367,-2.284 -1.218,-1.071 -4.024,-2.309 -5.234,-2.309 -0.641,0 -1.935,-0.272 -2.876,-0.604 -0.941,-0.332 -2.668,-0.716 -3.837,-0.853 -2.652,-0.312 -3.7,-1.263 -3.025,-2.745 0.532,-1.167 2.064,-1.329 4.158,-0.44 0.723,0.306 2.477,0.771 3.898,1.033 1.421,0.261 3.103,0.744 3.738,1.072 1.178,0.609 7.154,2.622 9.22,3.106 1.885,0.441 5.651,-3.871 6.885,-7.881 0.15,-0.489 0.901,-1.968 1.669,-3.287 2.573,-4.425 2.653,-13.06 0.173,-18.77 -2.619,-6.028 -2.121,-10.048 1.612,-13.02 2.375,-1.891 2.902,-1.955 4.741,-0.583 0.758,0.565 1.931,1.262 2.606,1.549 2.162,0.919 15.798,14.346 23.245,22.891 2.461,2.822 4.802,5.492 5.204,5.932 2.113,2.316 4.9,5.81 5.902,7.4 0.624,0.99 1.742,2.311 2.486,2.936 3.767,3.165 3.792,8.814 0.071,15.858 -0.405,0.767 -0.736,1.6 -0.736,1.851 0,0.251 -0.248,0.663 -0.552,0.915 -0.303,0.252 -0.663,1.039 -0.8,1.749 -0.239,1.237 -2.172,6.197 -3.233,8.291 -0.278,0.55 -0.617,1.854 -0.753,2.898 -0.135,1.043 -0.7,2.792 -1.254,3.886 -0.554,1.094 -1.008,2.333 -1.008,2.754 0,0.42 -0.255,0.976 -0.568,1.235 -0.312,0.259 -0.772,1.766 -1.022,3.349 -0.251,1.583 -0.715,3.97 -1.033,5.304 -0.815,3.424 -0.809,16.722 0.009,18.678 0.665,1.593 0.471,2.619 -1.08,5.7 -1.107,2.199 -1.414,8.849 -0.452,9.81 1.538,1.537 3.674,-0.967 4.007,-4.698 0.824,-9.239 5.692,-9.02 6.304,0.284 0.313,4.771 4.05,14.632 5.703,15.051 2.408,0.61 3.182,-1.009 1.788,-3.741 -0.677,-1.328 -1.688,-5.186 -2.349,-8.964 -0.258,-1.478 0.485,-2.725 1.472,-2.467 0.753,0.197 4.021,4.118 4.021,4.825 0,0.186 0.554,1.092 1.231,2.013 0.678,0.921 1.918,3.666 2.757,6.1 1.706,4.948 2.471,6.079 3.991,5.902 1.419,-0.165 1.484,-1.325 0.248,-4.415 -2.33,-5.824 -1.54,-10.424 1.272,-7.404 0.983,1.056 2.498,4.864 2.506,6.3 0.011,1.948 0.446,2.8 1.428,2.8 2.632,0 2.371,-4.995 -0.606,-11.6 -2.68,-5.946 -2.548,-5.72 -3.665,-6.286 -0.528,-0.268 -1.411,-1 -1.961,-1.627 -1.312,-1.496 -4.116,-3.672 -6.564,-5.095 -1.08,-0.628 -3.736,-2.863 -5.903,-4.967 l -3.941,-3.825 0.004,-2.283 c 0.002,-1.841 0.313,-2.924 1.607,-5.6 1.488,-3.079 3.191,-8.971 3.769,-13.045 0.135,-0.951 0.497,-2.121 0.803,-2.6 0.479,-0.748 1.991,-7.446 3.041,-13.472 0.173,-0.99 0.598,-2.34 0.946,-3 0.395,-0.749 0.633,-2.217 0.635,-3.908 10e-4,-1.859 0.318,-3.612 1.011,-5.596 1.827,-5.229 1.493,-7.741 -1.177,-8.857 -2.312,-0.967 -2.619,-2.351 -1.122,-5.053 0.709,-1.281 1.29,-2.783 1.29,-3.338 0,-2.058 -7.036,-10.119 -9.864,-11.301 -2.316,-0.967 -4.387,-2.562 -8.398,-6.464 -2.015,-1.96 -4.679,-4.138 -5.922,-4.839 -1.242,-0.701 -2.863,-1.943 -3.602,-2.759 -3.683,-4.071 -7.278,-8.035 -8.475,-9.347 -0.735,-0.805 -1.674,-2.245 -2.089,-3.2 -0.414,-0.956 -1.238,-2.187 -1.831,-2.735 -0.593,-0.549 -1.725,-2.23 -2.517,-3.736 -1.694,-3.224 -2.157,-3.467 -6.605,-3.467 -3.077,0 -3.394,0.085 -5.945,1.601 -1.483,0.881 -3.833,1.881 -5.224,2.224 -1.39,0.342 -3.184,0.873 -3.986,1.179 -2.342,0.893 -11.775,0.96 -13.542,0.096 -2.561,-1.253 -4.118,-2.257 -5.365,-3.461 -1.998,-1.927 -4.667,-2.079 -7.586,-0.432 -2.417,1.364 -2.098,1.34 -7.449,0.57 -2.14,-0.308 -6.57,-1.971 -8.062,-3.026 -0.584,-0.413 -1.193,-0.751 -1.355,-0.751 -1.73,0 -6.385,-4.166 -7.983,-7.145 -2.509,-4.676 -6.932,-5.581 -10.537,-2.155 m 49.197,-0.764 c -2.437,2.609 -12.779,2.953 -16.05,0.535 -1.526,-1.129 -2.322,-1.101 -2.869,0.1 -0.999,2.19 1.152,4.272 7.059,6.835 1.699,0.737 9.29,1.309 11.155,0.841 1.097,-0.275 3.573,-4.227 4.301,-6.867 0.732,-2.649 -1.597,-3.584 -3.596,-1.444 M 184.6,91.545 c 1.54,0.429 3.35,1.063 4.022,1.408 0.672,0.345 2.496,0.808 4.052,1.029 3.524,0.5 4.76,0.96 5.302,1.973 2.863,5.349 -14,3.717 -18.319,-1.774 -1.317,-1.673 -0.315,-4.151 1.463,-3.619 0.374,0.112 1.94,0.555 3.48,0.983 m 36.6,6.04 c 3.85,-0.004 7.54,-0.047 8.2,-0.096 1.112,-0.082 1.209,0.019 1.322,1.373 0.234,2.809 -3.134,3.318 -11.339,1.715 -1.833,-0.358 -4.008,-0.466 -6.225,-0.309 -4.691,0.331 -6.165,-0.461 -4.312,-2.314 0.733,-0.733 1.149,-0.814 3.1,-0.605 1.24,0.134 5.404,0.24 9.254,0.236 m -34.967,4.433 c 0.459,0.171 2.529,0.437 4.6,0.591 5.845,0.433 9.045,2.358 6.333,3.809 -1.275,0.682 -17.863,0.086 -19.09,-0.686 -4.029,-2.537 2.887,-5.686 8.157,-3.714 m 34.236,1.614 c 7.251,1.47 9.931,2.705 9.931,4.576 0,1.923 -2.361,2.89 -4.856,1.988 -2.005,-0.724 -7.048,-1.417 -11.874,-1.632 -4.829,-0.216 -7.492,-2.113 -5.608,-3.998 1.099,-1.098 8.755,-1.675 12.407,-0.934 m -25.946,7.191 c 2.419,0.459 3.684,1.496 3.3,2.705 -0.39,1.229 -2.089,1.601 -10.223,2.239 -4.07,0.319 -7.799,0.702 -8.287,0.85 -2.701,0.821 -4.391,-4.178 -1.843,-5.451 1.508,-0.754 13.602,-0.997 17.053,-0.343 m 26.202,3.017 c 1.388,0.308 3.531,0.56 4.761,0.56 3.631,0 6.749,4.107 4.685,6.171 -0.906,0.906 -2.342,0.779 -6.006,-0.533 -3.845,-1.377 -8.707,-2.361 -11.801,-2.389 -4.034,-0.036 -5.795,-1.84 -3.664,-3.754 1.239,-1.112 7.139,-1.139 12.025,-0.055 m -26.699,6.574 c 2.4,1.284 0.586,3.586 -2.826,3.586 -0.605,0 -1.876,0.274 -2.826,0.609 -0.949,0.335 -3.447,0.772 -5.55,0.971 -2.103,0.199 -4.194,0.476 -4.647,0.617 -0.529,0.165 -1.172,-0.027 -1.8,-0.537 l -0.977,-0.794 0.821,-1.103 c 1.927,-2.59 14.725,-4.998 17.805,-3.349 m 18.774,0.936 c 0.99,0.298 2.88,0.674 4.2,0.835 1.32,0.161 3.155,0.635 4.078,1.054 0.923,0.418 2.198,0.761 2.833,0.761 2.329,0 6.515,1.617 6.916,2.672 0.573,1.507 0.472,1.883 -0.927,3.449 l -1.3,1.455 -2.4,-1.001 c -1.458,-0.608 -3.815,-1.148 -6.003,-1.375 -3.777,-0.392 -5.165,-0.76 -7.657,-2.031 -0.83,-0.423 -1.84,-0.769 -2.244,-0.769 -1.606,0 -4.696,-2.064 -4.696,-3.136 0,-2.185 3.344,-3.074 7.2,-1.914 m -18.059,8.395 c 1.109,2.325 -1.192,4.3 -5.585,4.796 -1.234,0.139 -4.51,0.794 -7.278,1.456 -5.959,1.424 -6.816,1.465 -7.898,0.383 -2.497,-2.497 3.98,-6.636 10.676,-6.823 0.849,-0.024 2.714,-0.272 4.144,-0.552 4.013,-0.785 5.289,-0.626 5.941,0.74 m 15.675,2.461 c 0.944,0.333 3.442,0.787 5.55,1.01 12.385,1.307 13.234,1.781 9.543,5.33 -1.738,1.671 -3.889,1.886 -5.44,0.543 -1.222,-1.058 -5.832,-2.347 -10.413,-2.912 -2.4,-0.296 -3.656,-1.243 -3.656,-2.757 0,-1.76 1.613,-2.203 4.416,-1.214 m -85.207,1.205 c 0.366,0.441 0.439,1.501 0.263,3.789 -0.135,1.748 -0.08,5.568 0.122,8.489 0.201,2.921 0.572,11.341 0.823,18.711 0.251,7.37 0.599,13.58 0.774,13.8 1.474,1.86 0.663,4.012 -1.368,3.631 -1.735,-0.326 -1.566,0.16 -2.37,-6.831 -1.351,-11.738 -1.555,-16.239 -1.292,-28.545 0.288,-13.524 0.807,-15.744 3.048,-13.044 m 160.15,29.968 c 0.135,0.539 -0.006,1.754 -0.313,2.7 -0.307,0.947 -0.665,2.713 -0.795,3.925 -0.129,1.212 -0.768,4.002 -1.418,6.2 -0.651,2.198 -1.312,4.716 -1.471,5.596 -0.158,0.88 -0.782,2.703 -1.386,4.052 -0.605,1.348 -1.306,3.418 -1.559,4.6 -0.591,2.764 -2.034,5.714 -2.871,5.868 -2.703,0.498 -1.302,-11.911 2.295,-20.32 0.799,-1.87 1.699,-4.21 1.999,-5.2 2.306,-7.604 4.674,-10.788 5.519,-7.421 m -73.965,23.956 c 0.781,1.192 0.463,2.949 -1.055,5.821 -0.626,1.186 -1.139,2.36 -1.139,2.609 0,0.867 -6.54,7.189 -7.86,7.597 -3.022,0.936 -9.832,-1.998 -12.247,-5.276 -0.491,-0.667 -1.748,-2.329 -2.793,-3.693 -3.01,-3.931 -2.413,-5.288 2.556,-5.802 3.715,-0.384 5.421,0.266 5.961,2.274 1.192,4.425 5.139,3.923 7.282,-0.927 0.822,-1.859 1.225,-2.345 1.967,-2.37 0.514,-0.018 1.744,-0.264 2.734,-0.548 2.845,-0.815 3.901,-0.742 4.594,0.315 m 18.782,88.861 c -1.341,1.758 -1.097,3.016 0.813,4.197 2.101,1.299 3.744,0.984 4.72,-0.905 l 0.782,-1.512 -1.051,-1.588 c -1.468,-2.218 -3.658,-2.298 -5.264,-0.192 m -63.687,1.227 c -1.829,1.28 -0.718,6.87 1.506,7.575 2.887,0.917 4.166,-4.459 1.688,-7.098 -1.177,-1.254 -1.926,-1.366 -3.194,-0.477 m 60.111,9.311 c -0.44,0.162 -1.267,0.529 -1.838,0.816 -0.788,0.396 -1.407,0.42 -2.572,0.098 -3.916,-1.081 -3.806,-1.701 -3.103,17.552 0.229,6.27 0.307,17.07 0.173,24 -0.385,20.003 -0.361,21.18 0.474,22.927 1.552,3.25 1.402,5.686 -0.458,7.403 -3.778,3.488 -4.971,5.963 -3.305,6.854 0.97,0.52 2.001,0.161 3.029,-1.053 0.482,-0.569 2.325,-1.487 4.632,-2.308 l 3.832,-1.363 4.152,1.422 c 2.916,0.999 5.05,1.465 7.168,1.566 2.352,0.112 3.632,0.428 5.816,1.436 2.389,1.102 3.203,1.281 5.546,1.218 2.787,-0.076 4.027,0.315 6.271,1.974 0.725,0.536 2.01,0.821 4.488,0.996 4.28,0.302 4.695,0.05 4.695,-2.851 0,-2.38 0.892,-3.543 3.072,-4.004 1.623,-0.343 2.454,-1.251 1.77,-1.934 -0.341,-0.341 -2.63,-0.488 -7.763,-0.501 -6.577,-0.015 -7.483,-0.102 -9.394,-0.9 -1.163,-0.485 -2.444,-0.882 -2.848,-0.882 -0.403,0 -1.611,-0.688 -2.685,-1.529 -3.922,-3.073 -7.988,-5.587 -9.451,-5.844 -2.03,-0.356 -3.038,-2.141 -2.323,-4.116 0.724,-2.003 0.595,-11.043 -0.194,-13.511 -0.39,-1.221 -0.746,-4.353 -0.916,-8.044 -0.169,-3.685 -0.463,-6.268 -0.753,-6.617 -1.215,-1.464 -3.192,-26.789 -2.352,-30.133 0.495,-1.971 -2.645,-3.596 -5.163,-2.672 m -54.054,0.909 c -0.689,0.427 -2.309,1.046 -3.6,1.376 -3.309,0.844 -3.851,1.619 -3.617,5.161 1.226,18.477 1.167,37.797 -0.163,53.51 -0.342,4.042 -0.309,4.86 0.242,5.926 0.958,1.853 0.647,3.292 -0.808,3.733 -2.768,0.839 -6.522,2.537 -8.28,3.745 -1.036,0.712 -2.747,1.486 -3.802,1.72 -1.055,0.234 -3.376,0.977 -5.158,1.652 l -3.239,1.226 -2.84,-0.646 c -3.723,-0.847 -8.01,-0.852 -9.211,-0.01 -1.215,0.851 -0.487,1.764 1.405,1.764 4.319,0 3.984,2.747 -0.433,3.56 -3.315,0.61 -4.842,1.576 -4.842,3.062 0,1.465 1.442,1.768 3.842,0.808 1.827,-0.731 7.05,-0.848 9.161,-0.204 2.083,0.635 6.834,0.515 8.22,-0.207 0.647,-0.338 1.31,-0.615 1.473,-0.617 0.163,-10e-4 1.513,-0.839 3,-1.862 11.448,-7.877 21.995,-10.064 28.014,-5.81 2.509,1.774 5.454,1.408 5.214,-0.647 -0.1,-0.861 -0.619,-1.316 -2.724,-2.386 -5.56,-2.827 -5.816,-3.738 -3.953,-14.074 0.414,-2.298 0.75,-5.358 0.746,-6.8 -0.003,-1.443 0.209,-5.066 0.473,-8.052 0.531,-6.026 -0.056,-25.006 -0.878,-28.371 -0.242,-0.99 -0.587,-2.88 -0.767,-4.2 -0.18,-1.32 -0.608,-3.57 -0.952,-5 -0.344,-1.43 -0.846,-3.756 -1.116,-5.169 -0.754,-3.943 -2.513,-4.98 -5.407,-3.188 m 52.64,8.731 c 0.228,0.425 0.414,1.93 0.414,3.345 0,2.225 0.154,2.764 1.142,4.007 0.941,1.185 1.258,2.193 1.81,5.755 0.368,2.376 0.943,5.508 1.276,6.96 0.334,1.453 0.712,5.503 0.84,9 0.184,5.04 0.396,6.747 1.018,8.228 1.657,3.941 0.624,16.475 -1.486,18.025 -3.149,2.313 -5.602,-3.373 -6.217,-14.412 -1.019,-18.286 -1.202,-22.113 -1.19,-24.882 0.008,-1.65 -0.087,-5.851 -0.209,-9.335 -0.234,-6.626 -0.071,-7.465 1.451,-7.465 0.405,0 0.923,0.348 1.151,0.774 m -51.568,0.436 c 0.976,0.522 1.849,3.519 2.574,8.836 0.312,2.285 0.855,5.684 1.207,7.554 1.869,9.926 0.365,33.346 -2.268,35.312 -3.398,2.537 -5.144,-0.179 -3.927,-6.112 0.203,-0.99 0.463,-7.83 0.578,-15.2 0.114,-7.37 0.311,-15.11 0.437,-17.2 0.238,-3.941 -0.382,-10.716 -1.041,-11.38 -1.176,-1.183 0.83,-2.672 2.44,-1.81 m 97.6,69.895 c -1.348,1.092 -0.543,2.895 1.292,2.895 2.362,0 3.319,-2.429 1.264,-3.21 -1.377,-0.523 -1.547,-0.502 -2.556,0.315"
       stroke="none"
       fill="#ffffff"
       fill-rule="evenodd"
       style="display:inline" />
    <path
       id="path1"
       d="M 0,200 V 400 H 200 400 V 200 0 H 200 0 V 200 M 216.711,29.401 c 0.941,0.382 1.931,1.007 2.2,1.389 0.506,0.72 2.943,2.078 4.689,2.615 3.355,1.03 7.038,6.042 7.42,10.098 0.45,4.759 -0.209,5.662 -4.42,6.067 l -2.4,0.23 -0.126,1.539 c -0.155,1.883 0.52,2.721 2.935,3.643 1.841,0.703 2.583,2.031 2.589,4.629 0.004,2.119 -2.689,3.716 -7.707,4.572 -2.265,0.386 -4.892,2.336 -5.629,4.179 -1.337,3.342 -4.444,5.238 -8.582,5.238 -1.116,0 -2.522,0.188 -3.125,0.417 -2.153,0.819 -6.711,-1.018 -7.95,-3.204 -0.566,-0.997 -1.184,-2.083 -1.374,-2.413 -0.19,-0.33 -0.554,-1.05 -0.809,-1.6 -1.873,-4.044 -2.254,-4.385 -4.893,-4.394 -4.277,-0.014 -6.177,-7.988 -3.217,-13.504 1.342,-2.502 1.462,-3.007 1.615,-6.812 l 0.164,-4.11 3.255,-2.795 c 2.075,-1.782 3.834,-2.949 4.854,-3.219 0.88,-0.233 2.32,-0.759 3.2,-1.17 0.88,-0.411 3.117,-1.03 4.972,-1.377 1.854,-0.346 3.474,-0.737 3.6,-0.869 0.451,-0.473 7.065,0.171 8.739,0.851 m -8.312,18.4 c -1.585,1.909 2.165,8.192 4.893,8.198 5.535,0.011 6.294,-6.882 0.908,-8.254 -2.757,-0.703 -5.191,-0.679 -5.801,0.056 M 196,47.82 c -0.33,0.07 -1.243,0.231 -2.029,0.358 -4.844,0.785 -3.316,10.222 1.655,10.222 1.743,0 2.197,-0.465 3.445,-3.529 2.121,-5.205 0.946,-7.901 -3.071,-7.051 m 7.723,10.676 c -1.266,1.39 -2.311,4.972 -1.787,6.123 1.134,2.49 6.497,1.849 6.8,-0.813 0.428,-3.764 -3.057,-7.456 -5.013,-5.31 m -31.282,16.813 c 0.751,0.503 1.896,1.91 2.559,3.146 1.598,2.979 6.253,7.145 7.983,7.145 0.162,0 0.771,0.338 1.355,0.751 1.492,1.055 5.922,2.718 8.062,3.026 5.351,0.77 5.032,0.794 7.449,-0.57 2.919,-1.647 5.588,-1.495 7.586,0.432 1.247,1.204 2.804,2.208 5.365,3.461 1.767,0.864 11.2,0.797 13.542,-0.096 0.802,-0.306 2.596,-0.837 3.986,-1.179 1.391,-0.343 3.741,-1.343 5.224,-2.224 2.551,-1.516 2.868,-1.601 5.945,-1.601 4.448,0 4.911,0.243 6.605,3.467 0.792,1.506 1.924,3.187 2.517,3.736 0.593,0.548 1.417,1.779 1.831,2.735 0.415,0.955 1.354,2.395 2.089,3.2 1.197,1.312 4.792,5.276 8.475,9.347 0.739,0.816 2.36,2.058 3.602,2.759 1.243,0.701 3.907,2.879 5.922,4.839 4.011,3.902 6.082,5.497 8.398,6.464 2.828,1.182 9.864,9.243 9.864,11.301 0,0.555 -0.581,2.057 -1.29,3.338 -1.497,2.702 -1.19,4.086 1.122,5.053 2.67,1.116 3.004,3.628 1.177,8.857 -0.693,1.984 -1.01,3.737 -1.011,5.596 -0.002,1.691 -0.24,3.159 -0.635,3.908 -0.348,0.66 -0.773,2.01 -0.946,3 -1.05,6.026 -2.562,12.724 -3.041,13.472 -0.306,0.479 -0.668,1.649 -0.803,2.6 -0.578,4.074 -2.281,9.966 -3.769,13.045 -1.294,2.676 -1.605,3.759 -1.607,5.6 l -0.004,2.283 3.941,3.825 c 2.167,2.104 4.823,4.339 5.903,4.967 2.448,1.423 5.252,3.599 6.564,5.095 0.55,0.627 1.433,1.359 1.961,1.627 1.117,0.566 0.985,0.34 3.665,6.286 2.977,6.605 3.238,11.6 0.606,11.6 -0.982,0 -1.417,-0.852 -1.428,-2.8 -0.008,-1.436 -1.523,-5.244 -2.506,-6.3 -2.812,-3.02 -3.602,1.58 -1.272,7.404 1.236,3.09 1.171,4.25 -0.248,4.415 -1.52,0.177 -2.285,-0.954 -3.991,-5.902 -0.839,-2.434 -2.079,-5.179 -2.757,-6.1 -0.677,-0.921 -1.231,-1.827 -1.231,-2.013 0,-0.707 -3.268,-4.628 -4.021,-4.825 -0.987,-0.258 -1.73,0.989 -1.472,2.467 0.661,3.778 1.672,7.636 2.349,8.964 1.394,2.732 0.62,4.351 -1.788,3.741 -1.653,-0.419 -5.39,-10.28 -5.703,-15.051 -0.612,-9.304 -5.48,-9.523 -6.304,-0.284 -0.333,3.731 -2.469,6.235 -4.007,4.698 -0.962,-0.961 -0.655,-7.611 0.452,-9.81 1.551,-3.081 1.745,-4.107 1.08,-5.7 -0.818,-1.956 -0.824,-15.254 -0.009,-18.678 0.318,-1.334 0.782,-3.721 1.033,-5.304 0.25,-1.583 0.71,-3.09 1.022,-3.349 0.313,-0.259 0.568,-0.815 0.568,-1.235 0,-0.421 0.454,-1.66 1.008,-2.754 0.554,-1.094 1.119,-2.843 1.254,-3.886 0.136,-1.044 0.475,-2.348 0.753,-2.898 1.061,-2.094 2.994,-7.054 3.233,-8.291 0.137,-0.71 0.497,-1.497 0.8,-1.749 0.304,-0.252 0.552,-0.664 0.552,-0.915 0,-0.251 0.331,-1.084 0.736,-1.851 3.721,-7.044 3.696,-12.693 -0.071,-15.858 -0.744,-0.625 -1.862,-1.946 -2.486,-2.936 -1.002,-1.59 -3.789,-5.084 -5.902,-7.4 -0.402,-0.44 -2.743,-3.11 -5.204,-5.932 -7.447,-8.545 -21.083,-21.972 -23.245,-22.891 -0.675,-0.287 -1.848,-0.984 -2.606,-1.549 -1.839,-1.372 -2.366,-1.308 -4.741,0.583 -3.733,2.972 -4.231,6.992 -1.612,13.02 2.48,5.71 2.4,14.345 -0.173,18.77 -0.768,1.319 -1.519,2.798 -1.669,3.287 -1.234,4.01 -5,8.322 -6.885,7.881 -2.066,-0.484 -8.042,-2.497 -9.22,-3.106 -0.635,-0.328 -2.317,-0.811 -3.738,-1.072 -1.421,-0.262 -3.175,-0.727 -3.898,-1.033 -2.094,-0.889 -3.626,-0.727 -4.158,0.44 -0.675,1.482 0.373,2.433 3.025,2.745 1.169,0.137 2.896,0.521 3.837,0.853 0.941,0.332 2.235,0.604 2.876,0.604 1.21,0 4.016,1.238 5.234,2.309 1.923,1.69 -0.179,3.718 -2.367,2.284 -2.013,-1.319 -8.794,-1.838 -10.385,-0.796 -1.74,1.14 -0.592,3.403 1.726,3.403 1.874,0 9.929,3.684 10.536,4.819 0.99,1.85 -1.11,2.396 -3.771,0.981 -7.423,-3.947 -10.161,-1.83 -8.046,6.221 1.234,4.7 1.234,5.073 0.008,9.65 -0.549,2.051 -0.999,3.761 -1,3.8 -0.017,1.176 4.328,1.793 6.585,0.934 0.571,-0.217 2.655,-1.927 4.631,-3.8 1.976,-1.873 3.915,-3.405 4.308,-3.405 0.393,0 0.918,-0.203 1.166,-0.451 1.041,-1.041 5.99,-0.934 7.652,0.166 3.051,2.019 3.046,8.532 -0.011,14.469 -2.611,5.069 -2.829,7.723 -0.953,11.593 l 1.152,2.377 -0.455,5.223 c -0.251,2.873 -0.723,6.393 -1.05,7.823 -1.221,5.346 -0.957,42.221 0.316,44.038 0.362,0.517 0.658,1.415 0.658,1.995 0,0.581 0.432,1.692 0.96,2.47 1.844,2.718 1.037,5.96 -1.619,6.504 -0.518,0.106 -1.424,0.295 -2.014,0.419 -2.112,0.445 -5.822,4.789 -7.933,9.288 -1.296,2.762 -4.603,2.457 -4.587,-0.423 0.024,-4.265 0.785,-8.22 2.15,-11.174 2.444,-5.285 2.561,-7.016 2.255,-33.317 -0.087,-7.48 0.039,-17.551 0.279,-22.38 0.65,-13.017 -0.057,-14.159 -5.519,-8.92 -3.445,3.305 -5.526,6.136 -6.355,8.649 -0.963,2.917 -1.235,2.982 -9.886,2.377 l -7.53,-0.528 -2,-2.793 c -1.101,-1.536 -2.831,-3.621 -3.846,-4.633 -1.014,-1.012 -1.914,-2.005 -2,-2.206 -0.603,-1.421 -4.816,-4.566 -6.117,-4.566 -1.664,0 -1.833,0.252 -2.978,4.455 -0.887,3.255 -0.891,3.168 0.492,10.545 0.33,1.76 0.798,6.17 1.04,9.8 0.242,3.63 0.611,7.59 0.819,8.8 0.208,1.21 0.453,9.13 0.544,17.6 0.103,9.617 0.33,15.925 0.605,16.797 0.242,0.769 0.44,2.251 0.44,3.293 0,1.042 0.218,3.169 0.485,4.726 0.532,3.098 0.322,3.565 -1.608,3.578 -1.126,0.007 -3.107,-2.067 -3.706,-3.88 -0.58,-1.759 -2.951,-1.882 -5.072,-0.264 -3.098,2.363 -5.739,0.106 -3.749,-3.203 0.474,-0.788 0.829,-2.351 0.964,-4.247 0.209,-2.918 0.907,-7.095 2.073,-12.4 0.97,-4.413 1.192,-12.81 0.46,-17.4 -0.35,-2.2 -0.899,-5.659 -1.22,-7.687 -0.32,-2.028 -0.705,-6.168 -0.855,-9.2 -0.152,-3.059 -0.529,-6.225 -0.847,-7.113 -2.405,-6.705 -2.324,-9.01 0.421,-11.89 3.228,-3.386 2.974,-5.32 -0.565,-4.305 -2.079,0.597 -2.28,0.532 -4.2,-1.361 -1.867,-1.841 -2.204,-3.078 -1.408,-5.172 0.205,-0.54 0.558,-2.666 0.784,-4.726 0.373,-3.403 0.518,-3.837 1.581,-4.746 0.644,-0.55 2.089,-2.561 3.213,-4.468 3.244,-5.509 6.421,-5.401 9.206,0.315 1.354,2.78 3.447,4.824 5.712,5.576 1.057,0.351 2.024,0.804 2.15,1.008 0.768,1.243 5.641,0.188 8.049,-1.744 7.808,-6.26 9.457,-11.241 5.516,-16.654 -1.13,-1.553 -1.065,-2.006 0.692,-4.832 2.572,-4.138 -0.264,-4.89 -8.347,-2.214 -2.071,0.685 -3.265,0.407 -3.577,-0.834 -0.582,-2.321 1.133,-3.189 7.08,-3.583 4.512,-0.298 4.955,-0.468 5.352,-2.048 0.94,-3.744 -3.525,-5.673 -8.236,-3.557 -1.181,0.53 -3.084,1.086 -4.228,1.234 -1.144,0.149 -2.291,0.525 -2.549,0.836 -0.629,0.758 -2.96,0.719 -3.742,-0.064 -1.579,-1.578 -0.1,-3.145 3.302,-3.501 1.351,-0.141 3.495,-0.632 4.763,-1.091 1.268,-0.46 3.386,-0.997 4.706,-1.195 3.187,-0.478 5,-1.435 5,-2.638 0,-2.219 -3.567,-2.647 -7.478,-0.897 -0.923,0.413 -1.919,0.751 -2.214,0.751 -0.295,0 -1.56,0.36 -2.812,0.8 -3.837,1.349 -11.39,1.172 -12.8,-0.3 l -1.053,-1.1 0.145,-8.2 c 0.169,-9.558 0.858,-14.545 2.627,-19.017 0.859,-2.171 1.294,-4.01 1.368,-5.783 0.06,-1.43 0.297,-3.05 0.527,-3.6 1.784,-4.273 1.376,-12.17 -0.649,-12.556 -5.022,-0.956 -6.146,-0.654 -8.062,2.166 -4.753,6.997 -9.193,12.605 -14.099,17.806 -1.925,2.042 -3.5,3.897 -3.5,4.122 0,0.226 -0.678,0.792 -1.507,1.258 -0.829,0.466 -1.913,1.44 -2.41,2.164 -1.634,2.386 -5.024,5.445 -8.883,8.019 -5.538,3.693 -5.157,2.914 -5.511,11.256 -0.168,3.941 -0.166,9.505 0.003,12.365 1.534,25.877 1.924,43.808 1.008,46.315 -1.195,3.269 -0.968,4.925 0.909,6.626 0.885,0.803 2.73,2.551 4.1,3.887 1.37,1.335 3.058,2.654 3.751,2.932 2.451,0.981 3.784,3.62 2.944,5.829 -0.652,1.714 -2.208,1.735 -3.843,0.052 -0.776,-0.799 -2.336,-1.922 -3.466,-2.494 -1.131,-0.573 -2.556,-1.412 -3.167,-1.864 -1.073,-0.793 -1.14,-0.797 -1.908,-0.101 -0.438,0.397 -2.287,1.59 -4.108,2.652 -7.021,4.093 -6.646,3.798 -6.925,5.443 -0.367,2.164 -1.297,4.759 -2.66,7.427 -0.648,1.267 -1.592,3.967 -2.099,6 -1.541,6.184 -2.229,7.317 -3.828,6.304 -0.903,-0.572 -0.817,-5.285 0.116,-6.315 0.386,-0.427 0.899,-1.837 1.14,-3.134 0.241,-1.298 0.766,-3.079 1.166,-3.959 1.062,-2.332 1.412,-5.508 0.675,-6.119 -0.616,-0.512 -2.697,0.705 -2.697,1.576 0,0.219 -0.55,1.199 -1.223,2.177 -1.181,1.716 -1.22,1.911 -1.111,5.563 0.205,6.873 -2.075,6.288 -4.665,-1.197 -0.965,-2.787 -0.879,-3.516 0.671,-5.693 0.746,-1.049 1.845,-2.914 2.442,-4.145 1.078,-2.225 1.773,-2.952 9.142,-9.562 8.263,-7.413 8.272,-7.439 3.987,-11.908 l -2.405,-2.509 -0.164,-22.091 c -0.17,-23.039 -0.511,-28.94 -1.879,-32.597 -0.562,-1.501 -0.795,-3.112 -0.795,-5.486 0,-1.849 -0.18,-3.473 -0.4,-3.609 -1.634,-1.01 0.675,-4.742 3.955,-6.395 0.746,-0.375 2.98,-2.06 4.965,-3.744 5.173,-4.388 7.853,-6.542 10.742,-8.636 1.396,-1.011 5.095,-4.28 8.22,-7.265 3.125,-2.985 6.455,-5.949 7.4,-6.587 C 154.002,92.385 160,85.49 160,83.251 c 0,-1.478 2.028,-4.637 4.463,-6.951 2.435,-2.314 5.442,-2.688 7.978,-0.991 m 44.736,-0.336 c 1.044,1.257 -2.358,8.406 -4.222,8.874 -1.865,0.468 -9.456,-0.104 -11.155,-0.841 -5.907,-2.563 -8.058,-4.645 -7.059,-6.835 0.547,-1.201 1.343,-1.229 2.869,-0.1 3.271,2.418 13.613,2.074 16.05,-0.535 1.155,-1.236 2.747,-1.491 3.517,-0.563 M 179.62,91.18 c -3.673,3.673 9.841,9.746 17.08,7.676 4.088,-1.17 1.699,-4.062 -4.026,-4.874 -1.556,-0.221 -3.38,-0.684 -4.052,-1.029 -0.672,-0.345 -2.482,-0.979 -4.022,-1.408 -1.54,-0.428 -3.106,-0.871 -3.48,-0.983 -0.376,-0.112 -1.045,0.163 -1.5,0.618 m 29.226,6.774 c -1.853,1.853 -0.379,2.645 4.312,2.314 2.217,-0.157 4.392,-0.049 6.225,0.309 8.205,1.603 11.573,1.094 11.339,-1.715 -0.113,-1.354 -0.21,-1.455 -1.322,-1.373 -2.579,0.192 -15.322,0.09 -17.454,-0.14 -1.951,-0.209 -2.367,-0.128 -3.1,0.605 m -30.046,3.935 c -1.805,0.917 -2.183,2.924 -0.724,3.843 1.227,0.772 17.815,1.368 19.09,0.686 2.712,-1.451 -0.488,-3.376 -6.333,-3.809 -2.071,-0.154 -4.141,-0.42 -4.6,-0.591 -2.093,-0.784 -6.01,-0.851 -7.433,-0.129 m 32.642,1.736 c -6.535,0.758 -4.79,4.626 2.228,4.939 4.826,0.215 9.869,0.908 11.874,1.632 1.829,0.661 2.988,0.52 4.156,-0.505 1.557,-1.368 0.341,-3.487 -2.5,-4.355 -6.881,-2.103 -9.722,-2.411 -15.758,-1.711 m -33.972,7.541 c -2.548,1.273 -0.858,6.272 1.843,5.451 0.488,-0.148 4.217,-0.531 8.287,-0.85 9.773,-0.766 11.934,-1.611 9.739,-3.806 -1.612,-1.612 -17.003,-2.228 -19.869,-0.795 m 33.13,1.95 c -4.729,0.595 -3.213,4.488 1.764,4.533 3.094,0.028 7.956,1.012 11.801,2.389 3.664,1.312 5.1,1.439 6.006,0.533 2.064,-2.064 -1.054,-6.171 -4.685,-6.171 -1.23,0 -3.373,-0.252 -4.761,-0.56 -2.66,-0.59 -8.098,-0.979 -10.125,-0.724 m -26,7.303 c -3.445,0.444 -7.394,2.019 -8.379,3.344 l -0.821,1.103 0.977,0.794 c 0.628,0.51 1.271,0.702 1.8,0.537 0.453,-0.141 2.544,-0.418 4.647,-0.617 2.103,-0.199 4.601,-0.636 5.55,-0.971 0.95,-0.335 2.221,-0.609 2.826,-0.609 2.783,0 3.6,-0.416 3.6,-1.836 0,-2.169 -2.969,-2.677 -10.2,-1.745 m 21.87,1.307 c -1.052,1.12 -1.103,1.946 -0.17,2.764 1.019,0.893 3.146,1.91 3.996,1.91 0.404,0 1.414,0.346 2.244,0.769 2.492,1.271 3.88,1.639 7.657,2.031 2.188,0.227 4.545,0.767 6.003,1.375 l 2.4,1.001 1.3,-1.455 c 2.682,-3.001 -0.371,-6.121 -5.989,-6.121 -0.635,0 -1.91,-0.343 -2.833,-0.761 -0.923,-0.419 -2.758,-0.893 -4.078,-1.054 -1.32,-0.161 -3.21,-0.537 -4.2,-0.835 -2.868,-0.863 -5.303,-0.718 -6.33,0.376 m -17.67,7.279 c -1.43,0.28 -3.295,0.528 -4.144,0.552 -6.696,0.187 -13.173,4.326 -10.676,6.823 1.082,1.082 1.939,1.041 7.898,-0.383 2.768,-0.662 6.044,-1.317 7.278,-1.456 4.393,-0.496 6.694,-2.471 5.585,-4.796 -0.652,-1.366 -1.928,-1.525 -5.941,-0.74 m 17.9,3.027 c -2.032,1.183 -0.197,3.757 2.956,4.145 4.581,0.565 9.191,1.854 10.413,2.912 1.551,1.343 3.702,1.128 5.44,-0.543 3.691,-3.549 2.842,-4.023 -9.543,-5.33 -2.108,-0.223 -4.606,-0.677 -5.55,-1.01 -1.991,-0.703 -2.747,-0.738 -3.716,-0.174 m -83.876,1.523 c -0.643,1.201 -0.996,24.165 -0.469,30.445 0.462,5.503 1.636,16.212 1.872,17.078 0.206,0.753 2.988,1.14 3.416,0.475 0.373,-0.58 0.091,-2.668 -0.452,-3.353 -0.175,-0.22 -0.523,-6.43 -0.774,-13.8 -0.251,-7.37 -0.622,-15.79 -0.823,-18.711 -0.202,-2.921 -0.257,-6.741 -0.122,-8.489 0.305,-3.956 -1.299,-6.165 -2.648,-3.645 m 160.04,29.669 c -0.716,0.768 -1.728,3.304 -3.024,7.576 -0.3,0.99 -1.2,3.33 -1.999,5.2 -3.597,8.409 -4.998,20.818 -2.295,20.32 0.837,-0.154 2.28,-3.104 2.871,-5.868 0.253,-1.182 0.954,-3.252 1.559,-4.6 0.604,-1.349 1.228,-3.172 1.386,-4.052 0.159,-0.88 0.82,-3.398 1.471,-5.596 0.65,-2.198 1.289,-4.988 1.418,-6.2 0.13,-1.212 0.488,-2.978 0.795,-3.925 1.005,-3.094 -0.331,-4.842 -2.182,-2.855 M 206.8,187.02 c -0.99,0.284 -2.22,0.53 -2.734,0.548 -0.742,0.025 -1.145,0.511 -1.967,2.37 -2.143,4.85 -6.09,5.352 -7.282,0.927 -0.54,-2.008 -2.246,-2.658 -5.961,-2.274 -4.969,0.514 -5.566,1.871 -2.556,5.802 1.045,1.364 2.302,3.026 2.793,3.693 2.415,3.278 9.225,6.212 12.247,5.276 1.32,-0.408 7.86,-6.73 7.86,-7.597 0,-0.249 0.513,-1.423 1.139,-2.609 2.893,-5.476 1.655,-7.624 -3.539,-6.136 m 28.64,89.368 1.051,1.588 -0.782,1.512 c -1.288,2.492 -5.656,1.856 -6.354,-0.925 -0.835,-3.326 4.145,-5.106 6.085,-2.175 m -65.757,1.512 c 2.478,2.639 1.199,8.015 -1.688,7.098 -2.224,-0.705 -3.335,-6.295 -1.506,-7.575 1.268,-0.889 2.017,-0.777 3.194,0.477 m 61.61,9.716 c 0.437,0.54 0.614,1.214 0.47,1.79 -0.84,3.344 1.137,28.669 2.352,30.133 0.29,0.349 0.584,2.932 0.753,6.617 0.17,3.691 0.526,6.823 0.916,8.044 0.789,2.468 0.918,11.508 0.194,13.511 -0.715,1.975 0.293,3.76 2.323,4.116 1.463,0.257 5.529,2.771 9.451,5.844 1.074,0.841 2.282,1.529 2.685,1.529 0.404,0 1.685,0.397 2.848,0.882 1.911,0.798 2.817,0.885 9.394,0.9 5.133,0.013 7.422,0.16 7.763,0.501 0.684,0.683 -0.147,1.591 -1.77,1.934 -2.18,0.461 -3.072,1.624 -3.072,4.004 0,2.901 -0.415,3.153 -4.695,2.851 -2.478,-0.175 -3.763,-0.46 -4.488,-0.996 -2.244,-1.659 -3.484,-2.05 -6.271,-1.974 -2.343,0.063 -3.157,-0.116 -5.546,-1.218 -2.184,-1.008 -3.464,-1.324 -5.816,-1.436 -2.118,-0.101 -4.252,-0.567 -7.168,-1.566 l -4.152,-1.422 -3.832,1.363 c -2.307,0.821 -4.15,1.739 -4.632,2.308 -1.028,1.214 -2.059,1.573 -3.029,1.053 -1.666,-0.891 -0.473,-3.366 3.305,-6.854 1.86,-1.717 2.01,-4.153 0.458,-7.403 -0.835,-1.747 -0.859,-2.924 -0.474,-22.927 0.134,-6.93 0.056,-17.73 -0.173,-24 -0.703,-19.253 -0.813,-18.633 3.103,-17.552 1.165,0.322 1.784,0.298 2.572,-0.098 2.76,-1.389 5.375,-1.362 6.531,0.066 m -54.562,-0.085 c 0.401,0.401 0.951,1.886 1.222,3.3 0.27,1.413 0.772,3.739 1.116,5.169 0.344,1.43 0.772,3.68 0.952,5 0.18,1.32 0.525,3.21 0.767,4.2 0.822,3.365 1.409,22.345 0.878,28.371 -0.264,2.986 -0.476,6.609 -0.473,8.052 0.004,1.442 -0.332,4.502 -0.746,6.8 -1.863,10.336 -1.607,11.247 3.953,14.074 2.105,1.07 2.624,1.525 2.724,2.386 0.24,2.055 -2.705,2.421 -5.214,0.647 -6.019,-4.254 -16.566,-2.067 -28.014,5.81 -1.487,1.023 -2.837,1.861 -3,1.862 -0.163,0.002 -0.826,0.279 -1.473,0.617 -1.386,0.722 -6.137,0.842 -8.22,0.207 -2.111,-0.644 -7.334,-0.527 -9.161,0.204 -2.4,0.96 -3.842,0.657 -3.842,-0.808 0,-1.486 1.527,-2.452 4.842,-3.062 4.417,-0.813 4.752,-3.56 0.433,-3.56 -1.892,0 -2.62,-0.913 -1.405,-1.764 1.201,-0.842 5.488,-0.837 9.211,0.01 l 2.84,0.646 3.239,-1.226 c 1.782,-0.675 4.103,-1.418 5.158,-1.652 1.055,-0.234 2.766,-1.008 3.802,-1.72 1.758,-1.208 5.512,-2.906 8.28,-3.745 1.455,-0.441 1.766,-1.88 0.808,-3.733 -0.551,-1.066 -0.584,-1.884 -0.242,-5.926 1.33,-15.713 1.389,-35.033 0.163,-53.51 -0.234,-3.542 0.308,-4.317 3.617,-5.161 1.291,-0.33 2.911,-0.949 3.6,-1.376 1.607,-0.996 3.257,-1.04 4.185,-0.112 m 46.098,8.634 c -0.337,0.406 -0.406,2.352 -0.245,6.9 0.122,3.484 0.217,7.685 0.209,9.335 -0.012,2.769 0.171,6.596 1.19,24.882 0.615,11.039 3.068,16.725 6.217,14.412 2.11,-1.55 3.143,-14.084 1.486,-18.025 -0.622,-1.481 -0.834,-3.188 -1.018,-8.228 -0.128,-3.497 -0.506,-7.547 -0.84,-9 -0.333,-1.452 -0.908,-4.584 -1.276,-6.96 -0.552,-3.562 -0.869,-4.57 -1.81,-5.755 -0.988,-1.243 -1.142,-1.782 -1.142,-4.007 0,-3.658 -1.301,-5.326 -2.771,-3.554 m -51.4,0.864 c -0.726,0.725 -0.779,1.061 -0.251,1.591 0.659,0.664 1.279,7.439 1.041,11.38 -0.126,2.09 -0.323,9.83 -0.437,17.2 -0.115,7.37 -0.375,14.21 -0.578,15.2 -1.217,5.933 0.529,8.649 3.927,6.112 2.633,-1.966 4.137,-25.386 2.268,-35.312 -0.352,-1.87 -0.895,-5.269 -1.207,-7.554 -1.091,-7.997 -2.619,-10.762 -4.763,-8.617 m 102.345,69.361 c 2.055,0.781 1.098,3.21 -1.264,3.21 -1.835,0 -2.64,-1.803 -1.292,-2.895 1.009,-0.817 1.179,-0.838 2.556,-0.315"
       stroke="none"
       fill="#000000"
       fill-rule="evenodd"
       style="display:inline" />
  </g>
</svg>
